<?xml version="1.0" standalone="no"?>
<!DOCTYPE svg PUBLIC "-//W3C//DTD SVG 20010904//EN"
 "http://www.w3.org/TR/2001/REC-SVG-20010904/DTD/svg10.dtd">
<svg version="1.0" xmlns="http://www.w3.org/2000/svg"
 width="640.000000pt" height="640.000000pt" viewBox="0 0 640.000000 640.000000"
 preserveAspectRatio="xMidYMid meet">
<metadata>
Created by potrace 1.14, written by Peter Selinger 2001-2017
</metadata>
<g transform="translate(0.000000,640.000000) scale(0.100000,-0.100000)"
fill="#000000" stroke="none">
<path d="M6280 6388 c-956 -161 -1679 -385 -2350 -726 -157 -80 -182 -94 -345
-190 -234 -139 -501 -330 -700 -501 -161 -138 -430 -411 -542 -549 -17 -22
-28 -24 -133 -27 -63 -3 -178 -7 -255 -10 -77 -2 -241 -8 -365 -11 -124 -3
-230 -9 -236 -13 -7 -3 -152 -143 -324 -311 -172 -168 -365 -357 -430 -420
-65 -63 -222 -216 -349 -339 -127 -124 -228 -227 -225 -230 6 -6 97 -8 639
-12 l370 -3 30 -31 c174 -183 391 -432 393 -451 3 -20 -7 -28 -70 -60 -478
-239 -807 -700 -962 -1344 -29 -122 -53 -250 -62 -335 -3 -33 -8 -62 -9 -65
-5 -8 -17 -227 -19 -326 -1 -51 2 -84 9 -85 20 -1 127 3 143 6 10 1 53 6 97
10 68 6 200 22 322 40 260 38 626 140 833 231 389 170 667 416 777 689 18 44
33 88 33 97 0 33 21 29 68 -16 26 -24 57 -53 68 -63 38 -32 206 -186 264 -240
30 -29 58 -53 62 -53 27 0 31 -61 35 -544 3 -276 6 -503 8 -504 3 -3 186 181
440 443 53 55 237 243 408 418 172 176 345 354 386 397 l75 79 2 73 c1 40 5
152 8 248 3 96 8 263 12 370 9 315 8 301 41 330 16 14 59 50 94 80 130 111
259 236 384 372 352 380 664 854 895 1358 273 595 467 1270 555 1935 2 17 7
47 9 67 3 20 9 77 12 125 3 48 8 91 11 96 5 9 -36 7 -107 -5z"/>
</g>
</svg>
